name rise30.6535peak61.5555fall82.9339.mot
datacolumns 19
datarows 20
range 7.85163600000000 7.88330100000000
endheader
time	ground_force1_vx	ground_force1_vy	ground_force1_vz	ground_force1_px	ground_force1_py	ground_force1_pz	ground_force2_vx	ground_force2_vy	ground_force2_vz	ground_force2_px	ground_force2_py	ground_force2_pz	ground_torque1_x	ground_torque1_y	ground_torque1_z	ground_torque2_x	ground_torque2_y	ground_torque2_z	
7.85163600000000	-9.28620100000000	45.32815400000000	-16.34344400000000	0.32916500000000	0.00000000000000	0.09483500000000	-51.70888300000000	805.80678200000000	-43.14155300000000	0.11624100000000	0.00000000000000	-0.06063500000000	0.00000000000000	-10.86490700000000	0.00000000000000	0.00000000000000	-13.92320200000000	0.00000000000000	
7.85330000000000	-9.85592700000000	51.74444800000000	-17.98117800000000	0.33264900000000	0.00000000000000	0.09586000000000	-52.56964200000000	803.26998200000003	-42.82128800000000	0.11536600000000	0.00000000000000	-0.06053600000000	0.00000000000000	-12.06446800000000	0.00000000000000	0.00000000000000	-13.90094500000000	0.00000000000000	
7.85497300000000	-10.22303800000000	58.08660900000000	-19.41646800000000	0.33592600000000	0.00000000000000	0.09682300000000	-53.45454700000000	800.62423600000000	-42.48641300000000	0.11448700000000	0.00000000000000	-0.06043400000000	0.00000000000000	-13.15010800000000	0.00000000000000	0.00000000000000	-13.88127800000000	0.00000000000000	
7.85664000000000	-10.37509100000000	64.29308200000000	-20.62496100000000	0.33902000000000	0.00000000000000	0.09773300000000	-54.36257000000000	797.86622499999999	-42.13661400000000	0.11360300000000	0.00000000000000	-0.06033000000000	0.00000000000000	-14.10365300000000	0.00000000000000	0.00000000000000	-13.86408500000000	0.00000000000000	
7.85830100000000	-10.30952200000000	70.32781300000001	-21.59554000000000	0.34195100000000	0.00000000000000	0.09859300000000	-55.29255900000000	794.99252600000000	-41.77158600000000	0.11271500000000	0.00000000000000	-0.06022400000000	0.00000000000000	-14.91545100000000	0.00000000000000	0.00000000000000	-13.84923700000000	0.00000000000000	
7.85996500000000	-10.03263300000000	76.17951400000000	-22.32934600000000	0.34473400000000	0.00000000000000	0.09940900000000	-56.24324700000000	791.99961900000005	-41.39103300000000	0.11182400000000	0.00000000000000	-0.06011600000000	0.00000000000000	-15.58391000000000	0.00000000000000	0.00000000000000	-13.83659000000000	0.00000000000000	
7.86163100000000	-9.55801600000000	81.85901900000000	-22.83796400000000	0.34738400000000	0.00000000000000	0.10018400000000	-57.21324300000000	788.88390200000003	-40.99467200000000	0.11093100000000	0.00000000000000	-0.06000600000000	0.00000000000000	-16.11446000000000	0.00000000000000	0.00000000000000	-13.82598400000000	0.00000000000000	
7.86329700000000	-8.90465300000000	87.39525700000000	-23.14105400000000	0.34991200000000	0.00000000000000	0.10092200000000	-58.20103900000000	785.64170500000000	-40.58223800000000	0.11003600000000	0.00000000000000	-0.05989500000000	0.00000000000000	-16.51810200000000	0.00000000000000	0.00000000000000	-13.81724800000000	0.00000000000000	
7.86496300000000	-8.09489700000000	92.83043300000000	-23.26374000000000	0.35233000000000	0.00000000000000	0.10162600000000	-59.20501200000000	782.26930000000004	-40.15348200000000	0.10914000000000	0.00000000000000	-0.05978100000000	0.00000000000000	-16.80975000000000	0.00000000000000	0.00000000000000	-13.81019800000000	0.00000000000000	
7.86663800000000	-7.15252200000000	98.21494800000001	-23.23399600000000	0.35464400000000	0.00000000000000	0.10229800000000	-60.22342000000000	778.76291700000002	-39.70817900000000	0.10824300000000	0.00000000000000	-0.05966500000000	0.00000000000000	-17.00654400000000	0.00000000000000	0.00000000000000	-13.80463400000000	0.00000000000000	
7.86830300000000	-6.10100100000000	103.60251200000000	-23.08025500000000	0.35686300000000	0.00000000000000	0.10294100000000	-61.25440800000000	775.11875899999995	-39.24612700000000	0.10734700000000	0.00000000000000	-0.05954700000000	0.00000000000000	-17.12625500000000	0.00000000000000	0.00000000000000	-13.80034500000000	0.00000000000000	
7.86997100000000	-4.96208000000000	109.04580700000000	-22.82938300000000	0.35899200000000	0.00000000000000	0.10355600000000	-62.29601100000000	771.33301900000004	-38.76715000000000	0.10645200000000	0.00000000000000	-0.05942700000000	0.00000000000000	-17.18592200000000	0.00000000000000	0.00000000000000	-13.79710900000000	0.00000000000000	
7.87163300000000	-3.75474700000000	114.59295500000000	-22.50512500000000	0.36103800000000	0.00000000000000	0.10414600000000	-63.34615600000000	767.40189399999997	-38.27110400000000	0.10555800000000	0.00000000000000	-0.05930500000000	0.00000000000000	-17.20076500000000	0.00000000000000	0.00000000000000	-13.79469200000000	0.00000000000000	
7.87330900000000	-2.49457200000000	120.28491000000000	-22.12705600000000	0.36300400000000	0.00000000000000	0.10471100000000	-64.40266400000000	763.32160599999997	-37.75787500000000	0.10466700000000	0.00000000000000	-0.05918000000000	0.00000000000000	-17.18343200000000	0.00000000000000	0.00000000000000	-13.79284800000000	0.00000000000000	
7.87496500000000	-1.19343000000000	126.15381100000000	-21.71002100000000	0.36489500000000	0.00000000000000	0.10525300000000	-65.46325600000000	759.08841700000005	-37.22738600000000	0.10377800000000	0.00000000000000	-0.05905400000000	0.00000000000000	-17.14356500000000	0.00000000000000	0.00000000000000	-13.79132100000000	0.00000000000000	
7.87663800000000	0.14046100000000	132.22226000000001	-21.26403700000000	0.36671300000000	0.00000000000000	0.10577300000000	-66.52555800000000	754.69865000000004	-36.67959500000000	0.10289400000000	0.00000000000000	-0.05892600000000	0.00000000000000	-17.08767000000000	0.00000000000000	0.00000000000000	-13.78984700000000	0.00000000000000	
7.87829700000000	1.50223600000000	138.50339600000001	-20.79456400000000	0.36846200000000	0.00000000000000	0.10627300000000	-67.58710400000000	750.14870499999995	-36.11450300000000	0.10201300000000	0.00000000000000	-0.05879500000000	0.00000000000000	-17.01924500000000	0.00000000000000	0.00000000000000	-13.78815100000000	0.00000000000000	
7.87996600000000	2.88987800000000	145.00162000000000	-20.30306300000000	0.37014300000000	0.00000000000000	0.10675300000000	-68.64534399999999	745.43508699999995	-35.53214800000000	0.10113800000000	0.00000000000000	-0.05866200000000	0.00000000000000	-16.93911300000000	0.00000000000000	0.00000000000000	-13.78595100000000	0.00000000000000	
7.88163800000000	4.30360900000000	151.71380300000001	-19.78775500000000	0.37175900000000	0.00000000000000	0.10721400000000	-69.69764700000000	740.55442000000005	-34.93261600000000	0.10026800000000	0.00000000000000	-0.05852800000000	0.00000000000000	-16.84588700000000	0.00000000000000	0.00000000000000	-13.78295700000000	0.00000000000000	
7.88330100000000	5.74521800000000	158.63077899999999	-19.24447600000000	0.37331200000000	0.00000000000000	0.10765700000000	-70.74131000000000	735.50347199999999	-34.31603600000000	0.09940500000000	0.00000000000000	-0.05839100000000	0.00000000000000	-16.73652600000000	0.00000000000000	0.00000000000000	-13.77887300000000	0.00000000000000	
